# xmcd
#
# Track frame offsets: 
#        150
#        11875
#        24245
#        36600
#        46437
#        53640
#        67245
#        78790
#        90417
#        100700
#        111030
#        121382
#        132697
#        143882
#        155047
#        164337
#        176702
#        187045
#        198435
#        210642
#        220682
#        231600
#        249627
#        258810
#        274525
#        285315
#        295550
#        304592
#        313797
#        326155
#
# Disc length: 4504 seconds
#
# Revision: 2
# Processed by: cddbd v1.5.2PL0 Copyright (c) Steve Scherf et al.
# Submitted via: ExactAudioCopy v1.0b3
#
DISCID=bd11961e
DTITLE=Bill Monroe - Bluegrass 1959-1969  Vol. 2
DYEAR=1991
DGENRE=Bluegrass
TTITLE0=There Was Nothing We Could Do
TTITLE1=I Was Left on the Street
TTITLE2=Cheap Love Affair
TTITLE3=When the Bees are in the Hive
TTITLE4=Big Ball in Brooklyn
TTITLE5=Columbus Stockade Blues
TTITLE6=Blue Ridge Mountain Blues
TTITLE7=How Will I Explain About You?
TTITLE8=Foggy River
TTITLE9=The Old Country Baptising
TTITLE10=I Found the Way
TTITLE11=This World is Not My Home
TTITLE12=Way Down Deep in My Soul
TTITLE13=Drifting Too Far From the Shore
TTITLE14=Going Home
TTITLE15=On the Jericho Road
TTITLE16=We'll Understand it Better
TTITLE17=Somebody Touched Me
TTITLE18=Careless Love
TTITLE19=I'm So Lonesome I Could Cry
TTITLE20=Jimmie Brown, The Newsboy
TTITLE21=Pass Me Not
TTITLE22=The Gloryland Way
TTITLE23=Farther Along
TTITLE24=Big Sandy River
TTITLE25=Baker's Breakdown
TTITLE26=Darling Corey
TTITLE27=Cindy
TTITLE28=Master Builder
TTITLE29=Let Me Rest at the End of the Day
EXTD=
EXTT0=
EXTT1=
EXTT2=
EXTT3=
EXTT4=
EXTT5=
EXTT6=
EXTT7=
EXTT8=
EXTT9=
EXTT10=
EXTT11=
EXTT12=
EXTT13=
EXTT14=
EXTT15=
EXTT16=
EXTT17=
EXTT18=
EXTT19=
EXTT20=
EXTT21=
EXTT22=
EXTT23=
EXTT24=
EXTT25=
EXTT26=
EXTT27=
EXTT28=
EXTT29=
PLAYORDER=
